solid OpenSCAD_Model
  facet normal -0.5 0.866025 0
    outer loop
      vertex 129.904 124.98 10
      vertex 129.904 124.98 0
      vertex 86.6199 99.99 10
    endloop
  endfacet
  facet normal -0.5 0.866025 0
    outer loop
      vertex 86.6199 99.99 10
      vertex 129.904 124.98 0
      vertex 86.6199 99.99 0
    endloop
  endfacet
  facet normal -1 -3.02581e-009 0
    outer loop
      vertex 86.6199 50.01 10
      vertex 86.6199 99.99 10
      vertex 86.6199 50.01 0
    endloop
  endfacet
  facet normal -1 -3.02581e-009 0
    outer loop
      vertex 86.6199 50.01 0
      vertex 86.6199 99.99 10
      vertex 86.6199 99.99 0
    endloop
  endfacet
  facet normal 0 0 -1
    outer loop
      vertex 86.6199 99.99 0
      vertex 129.904 124.98 0
      vertex 86.6199 50.01 0
    endloop
  endfacet
  facet normal 0 0 -1
    outer loop
      vertex 86.6199 50.01 0
      vertex 129.904 124.98 0
      vertex 173.188 99.99 0
    endloop
  endfacet
  facet normal 0 0 -1
    outer loop
      vertex 86.6199 50.01 0
      vertex 173.188 99.99 0
      vertex 173.188 50.01 0
    endloop
  endfacet
  facet normal 0 0 -1
    outer loop
      vertex 86.6199 50.01 0
      vertex 173.188 50.01 0
      vertex 129.904 25.02 0
    endloop
  endfacet
  facet normal 0 0 1
    outer loop
      vertex 86.6199 50.01 10
      vertex 129.904 25.02 10
      vertex 173.188 50.01 10
    endloop
  endfacet
  facet normal 0 0 1
    outer loop
      vertex 129.904 124.98 10
      vertex 86.6199 50.01 10
      vertex 173.188 99.99 10
    endloop
  endfacet
  facet normal 0 0 1
    outer loop
      vertex 173.188 99.99 10
      vertex 86.6199 50.01 10
      vertex 173.188 50.01 10
    endloop
  endfacet
  facet normal 0 0 1
    outer loop
      vertex 86.6199 99.99 10
      vertex 86.6199 50.01 10
      vertex 129.904 124.98 10
    endloop
  endfacet
  facet normal 0.5 0.866025 0
    outer loop
      vertex 173.188 99.99 10
      vertex 173.188 99.99 0
      vertex 129.904 124.98 10
    endloop
  endfacet
  facet normal 0.5 0.866025 0
    outer loop
      vertex 129.904 124.98 10
      vertex 173.188 99.99 0
      vertex 129.904 124.98 0
    endloop
  endfacet
  facet normal -0.5 -0.866025 0
    outer loop
      vertex 129.904 25.02 0
      vertex 129.904 25.02 10
      vertex 86.6199 50.01 10
    endloop
  endfacet
  facet normal -0.5 -0.866025 0
    outer loop
      vertex 86.6199 50.01 0
      vertex 129.904 25.02 0
      vertex 86.6199 50.01 10
    endloop
  endfacet
  facet normal 0.5 -0.866025 0
    outer loop
      vertex 173.188 50.01 0
      vertex 173.188 50.01 10
      vertex 129.904 25.02 10
    endloop
  endfacet
  facet normal 0.5 -0.866025 0
    outer loop
      vertex 129.904 25.02 0
      vertex 173.188 50.01 0
      vertex 129.904 25.02 10
    endloop
  endfacet
  facet normal 1 3.02581e-009 0
    outer loop
      vertex 173.188 99.99 10
      vertex 173.188 50.01 10
      vertex 173.188 50.01 0
    endloop
  endfacet
  facet normal 1 3.02581e-009 0
    outer loop
      vertex 173.188 99.99 0
      vertex 173.188 99.99 10
      vertex 173.188 50.01 0
    endloop
  endfacet
  facet normal -0.5 0.866025 0
    outer loop
      vertex 303.109 124.98 10
      vertex 303.109 124.98 0
      vertex 259.825 99.99 10
    endloop
  endfacet
  facet normal -0.5 0.866025 0
    outer loop
      vertex 259.825 99.99 10
      vertex 303.109 124.98 0
      vertex 259.825 99.99 0
    endloop
  endfacet
  facet normal -1 -3.02581e-009 0
    outer loop
      vertex 259.825 50.01 10
      vertex 259.825 99.99 10
      vertex 259.825 50.01 0
    endloop
  endfacet
  facet normal -1 -3.02581e-009 0
    outer loop
      vertex 259.825 50.01 0
      vertex 259.825 99.99 10
      vertex 259.825 99.99 0
    endloop
  endfacet
  facet normal 0 0 -1
    outer loop
      vertex 259.825 99.99 0
      vertex 303.109 124.98 0
      vertex 259.825 50.01 0
    endloop
  endfacet
  facet normal 0 0 -1
    outer loop
      vertex 259.825 50.01 0
      vertex 303.109 124.98 0
      vertex 346.393 99.99 0
    endloop
  endfacet
  facet normal 0 0 -1
    outer loop
      vertex 259.825 50.01 0
      vertex 346.393 99.99 0
      vertex 346.393 50.01 0
    endloop
  endfacet
  facet normal 0 0 -1
    outer loop
      vertex 259.825 50.01 0
      vertex 346.393 50.01 0
      vertex 303.109 25.02 0
    endloop
  endfacet
  facet normal 0 0 1
    outer loop
      vertex 259.825 50.01 10
      vertex 303.109 25.02 10
      vertex 346.393 50.01 10
    endloop
  endfacet
  facet normal 0 0 1
    outer loop
      vertex 303.109 124.98 10
      vertex 259.825 50.01 10
      vertex 346.393 99.99 10
    endloop
  endfacet
  facet normal 0 0 1
    outer loop
      vertex 346.393 99.99 10
      vertex 259.825 50.01 10
      vertex 346.393 50.01 10
    endloop
  endfacet
  facet normal 0 0 1
    outer loop
      vertex 259.825 99.99 10
      vertex 259.825 50.01 10
      vertex 303.109 124.98 10
    endloop
  endfacet
  facet normal 0.5 0.866025 0
    outer loop
      vertex 346.393 99.99 10
      vertex 346.393 99.99 0
      vertex 303.109 124.98 10
    endloop
  endfacet
  facet normal 0.5 0.866025 0
    outer loop
      vertex 303.109 124.98 10
      vertex 346.393 99.99 0
      vertex 303.109 124.98 0
    endloop
  endfacet
  facet normal -0.5 -0.866025 0
    outer loop
      vertex 303.109 25.02 0
      vertex 303.109 25.02 10
      vertex 259.825 50.01 10
    endloop
  endfacet
  facet normal -0.5 -0.866025 0
    outer loop
      vertex 259.825 50.01 0
      vertex 303.109 25.02 0
      vertex 259.825 50.01 10
    endloop
  endfacet
  facet normal 0.5 -0.866025 0
    outer loop
      vertex 346.393 50.01 0
      vertex 346.393 50.01 10
      vertex 303.109 25.02 10
    endloop
  endfacet
  facet normal 0.5 -0.866025 0
    outer loop
      vertex 303.109 25.02 0
      vertex 346.393 50.01 0
      vertex 303.109 25.02 10
    endloop
  endfacet
  facet normal 1 3.02581e-009 0
    outer loop
      vertex 346.393 99.99 10
      vertex 346.393 50.01 10
      vertex 346.393 50.01 0
    endloop
  endfacet
  facet normal 1 3.02581e-009 0
    outer loop
      vertex 346.393 99.99 0
      vertex 346.393 99.99 10
      vertex 346.393 50.01 0
    endloop
  endfacet
  facet normal -0.5 0.866025 0
    outer loop
      vertex 476.314 124.98 10
      vertex 476.314 124.98 0
      vertex 433.03 99.99 10
    endloop
  endfacet
  facet normal -0.5 0.866025 0
    outer loop
      vertex 433.03 99.99 10
      vertex 476.314 124.98 0
      vertex 433.03 99.99 0
    endloop
  endfacet
  facet normal -1 -3.02581e-009 0
    outer loop
      vertex 433.03 50.01 10
      vertex 433.03 99.99 10
      vertex 433.03 50.01 0
    endloop
  endfacet
  facet normal -1 -3.02581e-009 0
    outer loop
      vertex 433.03 50.01 0
      vertex 433.03 99.99 10
      vertex 433.03 99.99 0
    endloop
  endfacet
  facet normal 0 0 -1
    outer loop
      vertex 433.03 99.99 0
      vertex 476.314 124.98 0
      vertex 433.03 50.01 0
    endloop
  endfacet
  facet normal 0 0 -1
    outer loop
      vertex 433.03 50.01 0
      vertex 476.314 124.98 0
      vertex 519.598 99.99 0
    endloop
  endfacet
  facet normal 0 0 -1
    outer loop
      vertex 433.03 50.01 0
      vertex 519.598 99.99 0
      vertex 519.598 50.01 0
    endloop
  endfacet
  facet normal 0 0 -1
    outer loop
      vertex 433.03 50.01 0
      vertex 519.598 50.01 0
      vertex 476.314 25.02 0
    endloop
  endfacet
  facet normal 0 0 1
    outer loop
      vertex 433.03 50.01 10
      vertex 476.314 25.02 10
      vertex 519.598 50.01 10
    endloop
  endfacet
  facet normal 0 0 1
    outer loop
      vertex 476.314 124.98 10
      vertex 433.03 50.01 10
      vertex 519.598 99.99 10
    endloop
  endfacet
  facet normal 0 0 1
    outer loop
      vertex 519.598 99.99 10
      vertex 433.03 50.01 10
      vertex 519.598 50.01 10
    endloop
  endfacet
  facet normal 0 0 1
    outer loop
      vertex 433.03 99.99 10
      vertex 433.03 50.01 10
      vertex 476.314 124.98 10
    endloop
  endfacet
  facet normal 0.5 0.866025 0
    outer loop
      vertex 519.598 99.99 10
      vertex 519.598 99.99 0
      vertex 476.314 124.98 10
    endloop
  endfacet
  facet normal 0.5 0.866025 0
    outer loop
      vertex 476.314 124.98 10
      vertex 519.598 99.99 0
      vertex 476.314 124.98 0
    endloop
  endfacet
  facet normal -0.5 -0.866025 0
    outer loop
      vertex 476.314 25.02 0
      vertex 476.314 25.02 10
      vertex 433.03 50.01 10
    endloop
  endfacet
  facet normal -0.5 -0.866025 0
    outer loop
      vertex 433.03 50.01 0
      vertex 476.314 25.02 0
      vertex 433.03 50.01 10
    endloop
  endfacet
  facet normal 0.5 -0.866025 0
    outer loop
      vertex 519.598 50.01 0
      vertex 519.598 50.01 10
      vertex 476.314 25.02 10
    endloop
  endfacet
  facet normal 0.5 -0.866025 0
    outer loop
      vertex 476.314 25.02 0
      vertex 519.598 50.01 0
      vertex 476.314 25.02 10
    endloop
  endfacet
  facet normal 1 3.02581e-009 0
    outer loop
      vertex 519.598 99.99 10
      vertex 519.598 50.01 10
      vertex 519.598 50.01 0
    endloop
  endfacet
  facet normal 1 3.02581e-009 0
    outer loop
      vertex 519.598 99.99 0
      vertex 519.598 99.99 10
      vertex 519.598 50.01 0
    endloop
  endfacet
  facet normal -0.5 0.866025 0
    outer loop
      vertex 476.314 274.98 10
      vertex 476.314 274.98 0
      vertex 433.03 249.99 10
    endloop
  endfacet
  facet normal -0.5 0.866025 0
    outer loop
      vertex 433.03 249.99 10
      vertex 476.314 274.98 0
      vertex 433.03 249.99 0
    endloop
  endfacet
  facet normal -1 -3.02581e-009 0
    outer loop
      vertex 433.03 200.01 10
      vertex 433.03 249.99 10
      vertex 433.03 200.01 0
    endloop
  endfacet
  facet normal -1 -3.02581e-009 0
    outer loop
      vertex 433.03 200.01 0
      vertex 433.03 249.99 10
      vertex 433.03 249.99 0
    endloop
  endfacet
  facet normal 0 0 -1
    outer loop
      vertex 433.03 249.99 0
      vertex 476.314 274.98 0
      vertex 433.03 200.01 0
    endloop
  endfacet
  facet normal 0 0 -1
    outer loop
      vertex 433.03 200.01 0
      vertex 476.314 274.98 0
      vertex 519.598 249.99 0
    endloop
  endfacet
  facet normal 0 0 -1
    outer loop
      vertex 433.03 200.01 0
      vertex 519.598 249.99 0
      vertex 519.598 200.01 0
    endloop
  endfacet
  facet normal 0 0 -1
    outer loop
      vertex 433.03 200.01 0
      vertex 519.598 200.01 0
      vertex 476.314 175.02 0
    endloop
  endfacet
  facet normal 0 0 1
    outer loop
      vertex 433.03 200.01 10
      vertex 476.314 175.02 10
      vertex 519.598 200.01 10
    endloop
  endfacet
  facet normal 0 0 1
    outer loop
      vertex 476.314 274.98 10
      vertex 433.03 200.01 10
      vertex 519.598 249.99 10
    endloop
  endfacet
  facet normal 0 0 1
    outer loop
      vertex 519.598 249.99 10
      vertex 433.03 200.01 10
      vertex 519.598 200.01 10
    endloop
  endfacet
  facet normal 0 0 1
    outer loop
      vertex 433.03 249.99 10
      vertex 433.03 200.01 10
      vertex 476.314 274.98 10
    endloop
  endfacet
  facet normal 0.5 0.866025 0
    outer loop
      vertex 519.598 249.99 10
      vertex 519.598 249.99 0
      vertex 476.314 274.98 10
    endloop
  endfacet
  facet normal 0.5 0.866025 0
    outer loop
      vertex 476.314 274.98 10
      vertex 519.598 249.99 0
      vertex 476.314 274.98 0
    endloop
  endfacet
  facet normal -0.5 -0.866025 0
    outer loop
      vertex 476.314 175.02 0
      vertex 476.314 175.02 10
      vertex 433.03 200.01 10
    endloop
  endfacet
  facet normal -0.5 -0.866025 0
    outer loop
      vertex 433.03 200.01 0
      vertex 476.314 175.02 0
      vertex 433.03 200.01 10
    endloop
  endfacet
  facet normal 0.5 -0.866025 0
    outer loop
      vertex 519.598 200.01 0
      vertex 519.598 200.01 10
      vertex 476.314 175.02 10
    endloop
  endfacet
  facet normal 0.5 -0.866025 0
    outer loop
      vertex 476.314 175.02 0
      vertex 519.598 200.01 0
      vertex 476.314 175.02 10
    endloop
  endfacet
  facet normal 1 3.02581e-009 0
    outer loop
      vertex 519.598 249.99 10
      vertex 519.598 200.01 10
      vertex 519.598 200.01 0
    endloop
  endfacet
  facet normal 1 3.02581e-009 0
    outer loop
      vertex 519.598 249.99 0
      vertex 519.598 249.99 10
      vertex 519.598 200.01 0
    endloop
  endfacet
  facet normal -0.5 0.866025 0
    outer loop
      vertex 129.904 274.98 10
      vertex 129.904 274.98 0
      vertex 86.6199 249.99 10
    endloop
  endfacet
  facet normal -0.5 0.866025 0
    outer loop
      vertex 86.6199 249.99 10
      vertex 129.904 274.98 0
      vertex 86.6199 249.99 0
    endloop
  endfacet
  facet normal -1 -3.02581e-009 0
    outer loop
      vertex 86.6199 200.01 10
      vertex 86.6199 249.99 10
      vertex 86.6199 200.01 0
    endloop
  endfacet
  facet normal -1 -3.02581e-009 0
    outer loop
      vertex 86.6199 200.01 0
      vertex 86.6199 249.99 10
      vertex 86.6199 249.99 0
    endloop
  endfacet
  facet normal 0 0 -1
    outer loop
      vertex 86.6199 249.99 0
      vertex 129.904 274.98 0
      vertex 86.6199 200.01 0
    endloop
  endfacet
  facet normal 0 0 -1
    outer loop
      vertex 86.6199 200.01 0
      vertex 129.904 274.98 0
      vertex 173.188 249.99 0
    endloop
  endfacet
  facet normal 0 0 -1
    outer loop
      vertex 86.6199 200.01 0
      vertex 173.188 249.99 0
      vertex 173.188 200.01 0
    endloop
  endfacet
  facet normal 0 0 -1
    outer loop
      vertex 86.6199 200.01 0
      vertex 173.188 200.01 0
      vertex 129.904 175.02 0
    endloop
  endfacet
  facet normal 0 0 1
    outer loop
      vertex 86.6199 200.01 10
      vertex 129.904 175.02 10
      vertex 173.188 200.01 10
    endloop
  endfacet
  facet normal 0 0 1
    outer loop
      vertex 129.904 274.98 10
      vertex 86.6199 200.01 10
      vertex 173.188 249.99 10
    endloop
  endfacet
  facet normal 0 0 1
    outer loop
      vertex 173.188 249.99 10
      vertex 86.6199 200.01 10
      vertex 173.188 200.01 10
    endloop
  endfacet
  facet normal 0 0 1
    outer loop
      vertex 86.6199 249.99 10
      vertex 86.6199 200.01 10
      vertex 129.904 274.98 10
    endloop
  endfacet
  facet normal 0.5 0.866025 0
    outer loop
      vertex 173.188 249.99 10
      vertex 173.188 249.99 0
      vertex 129.904 274.98 10
    endloop
  endfacet
  facet normal 0.5 0.866025 0
    outer loop
      vertex 129.904 274.98 10
      vertex 173.188 249.99 0
      vertex 129.904 274.98 0
    endloop
  endfacet
  facet normal -0.5 -0.866025 0
    outer loop
      vertex 129.904 175.02 0
      vertex 129.904 175.02 10
      vertex 86.6199 200.01 10
    endloop
  endfacet
  facet normal -0.5 -0.866025 0
    outer loop
      vertex 86.6199 200.01 0
      vertex 129.904 175.02 0
      vertex 86.6199 200.01 10
    endloop
  endfacet
  facet normal 0.5 -0.866025 0
    outer loop
      vertex 173.188 200.01 0
      vertex 173.188 200.01 10
      vertex 129.904 175.02 10
    endloop
  endfacet
  facet normal 0.5 -0.866025 0
    outer loop
      vertex 129.904 175.02 0
      vertex 173.188 200.01 0
      vertex 129.904 175.02 10
    endloop
  endfacet
  facet normal 1 3.02581e-009 0
    outer loop
      vertex 173.188 249.99 10
      vertex 173.188 200.01 10
      vertex 173.188 200.01 0
    endloop
  endfacet
  facet normal 1 3.02581e-009 0
    outer loop
      vertex 173.188 249.99 0
      vertex 173.188 249.99 10
      vertex 173.188 200.01 0
    endloop
  endfacet
  facet normal -0.5 0.866025 0
    outer loop
      vertex 303.109 274.98 10
      vertex 303.109 274.98 0
      vertex 259.825 249.99 10
    endloop
  endfacet
  facet normal -0.5 0.866025 0
    outer loop
      vertex 259.825 249.99 10
      vertex 303.109 274.98 0
      vertex 259.825 249.99 0
    endloop
  endfacet
  facet normal -1 -3.02581e-009 0
    outer loop
      vertex 259.825 200.01 10
      vertex 259.825 249.99 10
      vertex 259.825 200.01 0
    endloop
  endfacet
  facet normal -1 -3.02581e-009 0
    outer loop
      vertex 259.825 200.01 0
      vertex 259.825 249.99 10
      vertex 259.825 249.99 0
    endloop
  endfacet
  facet normal 0 0 -1
    outer loop
      vertex 259.825 249.99 0
      vertex 303.109 274.98 0
      vertex 259.825 200.01 0
    endloop
  endfacet
  facet normal 0 0 -1
    outer loop
      vertex 259.825 200.01 0
      vertex 303.109 274.98 0
      vertex 346.393 249.99 0
    endloop
  endfacet
  facet normal 0 0 -1
    outer loop
      vertex 259.825 200.01 0
      vertex 346.393 249.99 0
      vertex 346.393 200.01 0
    endloop
  endfacet
  facet normal 0 0 -1
    outer loop
      vertex 259.825 200.01 0
      vertex 346.393 200.01 0
      vertex 303.109 175.02 0
    endloop
  endfacet
  facet normal 0 0 1
    outer loop
      vertex 259.825 200.01 10
      vertex 303.109 175.02 10
      vertex 346.393 200.01 10
    endloop
  endfacet
  facet normal 0 0 1
    outer loop
      vertex 303.109 274.98 10
      vertex 259.825 200.01 10
      vertex 346.393 249.99 10
    endloop
  endfacet
  facet normal 0 0 1
    outer loop
      vertex 346.393 249.99 10
      vertex 259.825 200.01 10
      vertex 346.393 200.01 10
    endloop
  endfacet
  facet normal 0 0 1
    outer loop
      vertex 259.825 249.99 10
      vertex 259.825 200.01 10
      vertex 303.109 274.98 10
    endloop
  endfacet
  facet normal 0.5 0.866025 0
    outer loop
      vertex 346.393 249.99 10
      vertex 346.393 249.99 0
      vertex 303.109 274.98 10
    endloop
  endfacet
  facet normal 0.5 0.866025 0
    outer loop
      vertex 303.109 274.98 10
      vertex 346.393 249.99 0
      vertex 303.109 274.98 0
    endloop
  endfacet
  facet normal -0.5 -0.866025 0
    outer loop
      vertex 303.109 175.02 0
      vertex 303.109 175.02 10
      vertex 259.825 200.01 10
    endloop
  endfacet
  facet normal -0.5 -0.866025 0
    outer loop
      vertex 259.825 200.01 0
      vertex 303.109 175.02 0
      vertex 259.825 200.01 10
    endloop
  endfacet
  facet normal 0.5 -0.866025 0
    outer loop
      vertex 346.393 200.01 0
      vertex 346.393 200.01 10
      vertex 303.109 175.02 10
    endloop
  endfacet
  facet normal 0.5 -0.866025 0
    outer loop
      vertex 303.109 175.02 0
      vertex 346.393 200.01 0
      vertex 303.109 175.02 10
    endloop
  endfacet
  facet normal 1 3.02581e-009 0
    outer loop
      vertex 346.393 249.99 10
      vertex 346.393 200.01 10
      vertex 346.393 200.01 0
    endloop
  endfacet
  facet normal 1 3.02581e-009 0
    outer loop
      vertex 346.393 249.99 0
      vertex 346.393 249.99 10
      vertex 346.393 200.01 0
    endloop
  endfacet
endsolid OpenSCAD_Model
